<svg id="svg" fill="#000000" stroke="#000000" width="198" height="198" version="1.1" viewBox="143 143 514 514" xmlns="http://www.w3.org/2000/svg" stroke-width="10">
    <g id="IconSvg_bgCarrier" stroke-width="0"></g>
    <g id="IconSvg_tracerCarrier" stroke-linecap="round" stroke-linejoin="round" stroke="#CCCCCC" stroke-width="0">
      <g xmlns="http://www.w3.org/2000/svg" fill-rule="evenodd">
  <path d="m618.48 543.31h-436.96c-2.168 0-3.9062-1.7461-3.9062-3.8984v-278.82c0-2.1562 1.7383-3.9023 3.8984-3.9023 2.1562 0 3.9023 1.7461 3.9023 3.9023l0.003907 274.92h429.16v-274.92c0-2.1562 1.7461-3.9023 3.8984-3.9023 2.1602 0 3.9023 1.7461 3.9023 3.9023l0.003906 278.82c0 2.1523-1.75 3.9023-3.9062 3.9023z"></path>
  <path d="m190.46 264.49 209.54 225.68 209.53-225.68zm209.54 235.31c-1.0898 0-2.1289-0.44922-2.8711-1.2461l-218.48-235.31c-1.0547-1.1367-1.332-2.793-0.71484-4.2148 0.62109-1.4219 2.0234-2.3398 3.5742-2.3398h436.96c1.5469 0 2.957 0.91797 3.5781 2.3438 0.62109 1.4219 0.33594 3.0781-0.72266 4.2148l-218.48 235.31c-0.74219 0.79687-1.7812 1.2461-2.8555 1.2461z"></path>
  <path d="m181.52 543.31c-1.0039 0-2.0156-0.38672-2.7852-1.1562-1.5117-1.5352-1.4922-4.0039 0.039063-5.5195l135.01-133.41c1.5312-1.5117 4-1.4961 5.5156 0.035157 1.5156 1.5312 1.4922 4.0039-0.03125 5.5156l-135.01 133.41c-0.76172 0.75391-1.7617 1.1289-2.7422 1.125zm436.96 0c-0.99219 0-1.9805-0.375-2.7422-1.125l-104.86-103.62c-0.007812-0.003906-0.011719-0.007812-0.023438-0.015625l-30.121-29.77c-1.5312-1.5117-1.5547-3.9844-0.039063-5.5156 1.5156-1.5352 3.9922-1.5469 5.5156-0.035157l30.133 29.77 104.89 103.64c1.5352 1.5156 1.543 3.9844 0.03125 5.5195-0.76172 0.77344-1.7656 1.1602-2.7734 1.1562z"></path>
 </g>

      </g>
     <g id="IconSvg_iconCarrier">
      <g xmlns="http://www.w3.org/2000/svg" fill-rule="evenodd">
  <path d="m618.48 543.31h-436.96c-2.168 0-3.9062-1.7461-3.9062-3.8984v-278.82c0-2.1562 1.7383-3.9023 3.8984-3.9023 2.1562 0 3.9023 1.7461 3.9023 3.9023l0.003907 274.92h429.16v-274.92c0-2.1562 1.7461-3.9023 3.8984-3.9023 2.1602 0 3.9023 1.7461 3.9023 3.9023l0.003906 278.82c0 2.1523-1.75 3.9023-3.9062 3.9023z"></path>
  <path d="m190.46 264.49 209.54 225.68 209.53-225.68zm209.54 235.31c-1.0898 0-2.1289-0.44922-2.8711-1.2461l-218.48-235.31c-1.0547-1.1367-1.332-2.793-0.71484-4.2148 0.62109-1.4219 2.0234-2.3398 3.5742-2.3398h436.96c1.5469 0 2.957 0.91797 3.5781 2.3438 0.62109 1.4219 0.33594 3.0781-0.72266 4.2148l-218.48 235.31c-0.74219 0.79687-1.7812 1.2461-2.8555 1.2461z"></path>
  <path d="m181.52 543.31c-1.0039 0-2.0156-0.38672-2.7852-1.1562-1.5117-1.5352-1.4922-4.0039 0.039063-5.5195l135.01-133.41c1.5312-1.5117 4-1.4961 5.5156 0.035157 1.5156 1.5312 1.4922 4.0039-0.03125 5.5156l-135.01 133.41c-0.76172 0.75391-1.7617 1.1289-2.7422 1.125zm436.96 0c-0.99219 0-1.9805-0.375-2.7422-1.125l-104.86-103.62c-0.007812-0.003906-0.011719-0.007812-0.023438-0.015625l-30.121-29.77c-1.5312-1.5117-1.5547-3.9844-0.039063-5.5156 1.5156-1.5352 3.9922-1.5469 5.5156-0.035157l30.133 29.77 104.89 103.64c1.5352 1.5156 1.543 3.9844 0.03125 5.5195-0.76172 0.77344-1.7656 1.1602-2.7734 1.1562z"></path>
 </g>

      </g>
      </svg>