<svg id="svg" fill="#000000" stroke="#000000" width="200" height="200" version="1.1" viewBox="144 144 512 512" xmlns="http://www.w3.org/2000/svg" stroke-width="5">
    <g id="IconSvg_bgCarrier" stroke-width="0"></g>
    <g id="IconSvg_tracerCarrier" stroke-linecap="round" stroke-linejoin="round" stroke="#CCCCCC" stroke-width="0">
      <g xmlns="http://www.w3.org/2000/svg" fill-rule="evenodd">
  <path d="m242.63 208-49.422 49.426c-14.523 14.523-8.5469 46.391 16.82 89.734 23.543 40.219 61.961 87.824 108.18 134.04 46.309 46.305 94.062 84.855 134.47 108.54 43.508 25.508 75.449 31.578 89.938 17.09l49.422-49.426-67.621-67.621-5.457 5.457c-14.984 14.984-37.762 18.922-65.875 11.391-31.277-8.3828-67.449-30.484-99.238-60.645-32.414-30.754-55.672-65.797-63.805-96.148-7.4648-27.867-2.3672-51.641 14.75-68.758l5.4609-5.457-67.621-67.621zm278.24 414.36c-18.441 0-42.777-8.6758-72.137-25.887-40.965-24.016-89.277-62.996-136.04-109.76-46.676-46.676-85.523-94.84-109.39-135.62-27.73-47.375-33.125-81.672-15.605-99.191l52.184-52.184c1.5234-1.5234 3.9922-1.5234 5.5195 0l73.141 73.137c0.73047 0.73047 1.1406 1.7266 1.1406 2.7617 0 1.0312-0.41016 2.0273-1.1406 2.7578l-8.2188 8.2188c-15.246 15.246-19.531 35.844-12.73 61.223 7.7695 29 30.238 62.719 61.637 92.508 30.875 29.293 65.824 50.715 95.887 58.766 17.617 4.7188 42.039 6.9297 58.336-9.3672l8.2188-8.2188c1.5234-1.5234 3.9922-1.5195 5.5195 0l73.137 73.137c1.5234 1.5234 1.5234 3.9961 0 5.5195l-52.184 52.184c-6.6875 6.6875-15.844 10.016-27.262 10.016z"></path>
  <path d="m554.63 383.7c-0.33594 0-0.67578-0.042969-1.0117-0.13281-2.082-0.5625-3.3164-2.6992-2.7578-4.7812 9.7773-36.438-0.70312-75.621-27.348-102.27-26.645-26.645-65.828-37.125-102.27-27.348-2.0781 0.55859-4.2227-0.67578-4.7812-2.7578s0.67578-4.2227 2.7578-4.7812c39.121-10.492 81.199 0.75781 109.8 29.367 28.609 28.609 39.863 70.688 29.367 109.8-0.46875 1.7422-2.043 2.8906-3.7656 2.8906z"></path>
  <path d="m518.88 368.6c-0.33594 0-0.67578-0.042968-1.0117-0.13281-2.082-0.55859-3.3164-2.6992-2.7578-4.7812 5.9414-22.141-0.42578-45.949-16.617-62.137-16.188-16.191-40-22.559-62.137-16.617-2.082 0.55859-4.2227-0.67578-4.7812-2.7578-0.55859-2.082 0.67578-4.2227 2.7578-4.7812 24.824-6.6602 51.523 0.48047 69.68 18.637s25.297 44.855 18.637 69.68c-0.46875 1.7422-2.043 2.8906-3.7656 2.8906z"></path>
  <path d="m490.16 365.71c-0.33594 0-0.67578-0.042969-1.0117-0.13281-2.082-0.55859-3.3164-2.6992-2.7578-4.7812 3.5547-13.254-0.25391-27.508-9.9453-37.195-9.6914-9.6914-23.945-13.504-37.195-9.9453-2.0781 0.55859-4.2227-0.67578-4.7812-2.7578s0.67578-4.2227 2.7578-4.7812c15.934-4.2773 33.078 0.30859 44.738 11.965 11.656 11.656 16.242 28.797 11.965 44.738-0.46875 1.7422-2.043 2.8906-3.7656 2.8906z"></path>
  <path d="m597.56 561.3c-1 0-1.9961-0.37891-2.7578-1.1406-1.5234-1.5234-1.5234-3.9922 0-5.5195l17.891-17.891c2.5234-2.5234 2.5234-6.6289-0.003906-9.1562l-58.492-58.496c-2.5078-2.5039-6.6016-2.4922-9.125 0.03125l-17.891 17.891c-1.5234 1.5234-3.9961 1.5234-5.5195 0-1.5234-1.5273-1.5234-3.9961 0-5.5195l17.891-17.891c5.5664-5.5664 14.609-5.5781 20.16-0.03125l58.492 58.492c5.5664 5.5664 5.5664 14.625 0 20.195l-17.891 17.891c-0.76172 0.76172-1.7617 1.1445-2.7578 1.1445z"></path>
  <path d="m315.75 279.5c-1 0-1.9961-0.37891-2.7578-1.1406-1.5234-1.5273-1.5234-3.9961 0-5.5195l17.891-17.891c2.5234-2.5234 2.5234-6.6328 0-9.1562l-58.496-58.496c-2.4961-2.5-6.582-2.4766-9.1094 0.046875l-17.891 17.891c-1.5234 1.5234-3.9922 1.5234-5.5195 0-1.5234-1.5234-1.5234-3.9961 0-5.5195l17.891-17.895c5.5664-5.5664 14.605-5.5859 20.145-0.046874l58.492 58.492c5.5664 5.5664 5.5703 14.629 0 20.195l-17.891 17.891c-0.76172 0.76172-1.7617 1.1445-2.7578 1.1445z"></path>
 </g>

      </g>
     <g id="IconSvg_iconCarrier">
      <g xmlns="http://www.w3.org/2000/svg" fill-rule="evenodd">
  <path d="m242.63 208-49.422 49.426c-14.523 14.523-8.5469 46.391 16.82 89.734 23.543 40.219 61.961 87.824 108.18 134.04 46.309 46.305 94.062 84.855 134.47 108.54 43.508 25.508 75.449 31.578 89.938 17.09l49.422-49.426-67.621-67.621-5.457 5.457c-14.984 14.984-37.762 18.922-65.875 11.391-31.277-8.3828-67.449-30.484-99.238-60.645-32.414-30.754-55.672-65.797-63.805-96.148-7.4648-27.867-2.3672-51.641 14.75-68.758l5.4609-5.457-67.621-67.621zm278.24 414.36c-18.441 0-42.777-8.6758-72.137-25.887-40.965-24.016-89.277-62.996-136.04-109.76-46.676-46.676-85.523-94.84-109.39-135.62-27.73-47.375-33.125-81.672-15.605-99.191l52.184-52.184c1.5234-1.5234 3.9922-1.5234 5.5195 0l73.141 73.137c0.73047 0.73047 1.1406 1.7266 1.1406 2.7617 0 1.0312-0.41016 2.0273-1.1406 2.7578l-8.2188 8.2188c-15.246 15.246-19.531 35.844-12.73 61.223 7.7695 29 30.238 62.719 61.637 92.508 30.875 29.293 65.824 50.715 95.887 58.766 17.617 4.7188 42.039 6.9297 58.336-9.3672l8.2188-8.2188c1.5234-1.5234 3.9922-1.5195 5.5195 0l73.137 73.137c1.5234 1.5234 1.5234 3.9961 0 5.5195l-52.184 52.184c-6.6875 6.6875-15.844 10.016-27.262 10.016z"></path>
  <path d="m554.63 383.7c-0.33594 0-0.67578-0.042969-1.0117-0.13281-2.082-0.5625-3.3164-2.6992-2.7578-4.7812 9.7773-36.438-0.70312-75.621-27.348-102.27-26.645-26.645-65.828-37.125-102.27-27.348-2.0781 0.55859-4.2227-0.67578-4.7812-2.7578s0.67578-4.2227 2.7578-4.7812c39.121-10.492 81.199 0.75781 109.8 29.367 28.609 28.609 39.863 70.688 29.367 109.8-0.46875 1.7422-2.043 2.8906-3.7656 2.8906z"></path>
  <path d="m518.88 368.6c-0.33594 0-0.67578-0.042968-1.0117-0.13281-2.082-0.55859-3.3164-2.6992-2.7578-4.7812 5.9414-22.141-0.42578-45.949-16.617-62.137-16.188-16.191-40-22.559-62.137-16.617-2.082 0.55859-4.2227-0.67578-4.7812-2.7578-0.55859-2.082 0.67578-4.2227 2.7578-4.7812 24.824-6.6602 51.523 0.48047 69.68 18.637s25.297 44.855 18.637 69.68c-0.46875 1.7422-2.043 2.8906-3.7656 2.8906z"></path>
  <path d="m490.16 365.71c-0.33594 0-0.67578-0.042969-1.0117-0.13281-2.082-0.55859-3.3164-2.6992-2.7578-4.7812 3.5547-13.254-0.25391-27.508-9.9453-37.195-9.6914-9.6914-23.945-13.504-37.195-9.9453-2.0781 0.55859-4.2227-0.67578-4.7812-2.7578s0.67578-4.2227 2.7578-4.7812c15.934-4.2773 33.078 0.30859 44.738 11.965 11.656 11.656 16.242 28.797 11.965 44.738-0.46875 1.7422-2.043 2.8906-3.7656 2.8906z"></path>
  <path d="m597.56 561.3c-1 0-1.9961-0.37891-2.7578-1.1406-1.5234-1.5234-1.5234-3.9922 0-5.5195l17.891-17.891c2.5234-2.5234 2.5234-6.6289-0.003906-9.1562l-58.492-58.496c-2.5078-2.5039-6.6016-2.4922-9.125 0.03125l-17.891 17.891c-1.5234 1.5234-3.9961 1.5234-5.5195 0-1.5234-1.5273-1.5234-3.9961 0-5.5195l17.891-17.891c5.5664-5.5664 14.609-5.5781 20.16-0.03125l58.492 58.492c5.5664 5.5664 5.5664 14.625 0 20.195l-17.891 17.891c-0.76172 0.76172-1.7617 1.1445-2.7578 1.1445z"></path>
  <path d="m315.75 279.5c-1 0-1.9961-0.37891-2.7578-1.1406-1.5234-1.5273-1.5234-3.9961 0-5.5195l17.891-17.891c2.5234-2.5234 2.5234-6.6328 0-9.1562l-58.496-58.496c-2.4961-2.5-6.582-2.4766-9.1094 0.046875l-17.891 17.891c-1.5234 1.5234-3.9922 1.5234-5.5195 0-1.5234-1.5234-1.5234-3.9961 0-5.5195l17.891-17.895c5.5664-5.5664 14.605-5.5859 20.145-0.046874l58.492 58.492c5.5664 5.5664 5.5703 14.629 0 20.195l-17.891 17.891c-0.76172 0.76172-1.7617 1.1445-2.7578 1.1445z"></path>
 </g>

      </g>
      </svg>