<?xml version="1.0" standalone="no"?>
<!DOCTYPE svg PUBLIC "-//W3C//DTD SVG 20010904//EN"
 "http://www.w3.org/TR/2001/REC-SVG-20010904/DTD/svg10.dtd">
<svg version="1.0" xmlns="http://www.w3.org/2000/svg"
 width="1056.000000pt" height="980.000000pt" viewBox="0 0 1056.000000 980.000000"
 preserveAspectRatio="xMidYMid meet">

<g transform="translate(0.000000,980.000000) scale(0.100000,-0.100000)"
fill="#000000" stroke="none">
<path d="M1150 9780 c-138 -30 -308 -93 -390 -145 -23 -14 -58 -35 -78 -47
-138 -76 -383 -330 -472 -488 -104 -187 -161 -350 -190 -545 -9 -60 -11 -968
-8 -3705 3 -3461 4 -3628 22 -3700 54 -224 143 -421 258 -574 84 -109 257
-281 343 -338 146 -96 335 -175 530 -219 50 -12 722 -14 4125 -14 l4065 0 47
22 c25 12 68 25 94 29 27 4 63 13 81 20 18 8 43 14 55 14 13 0 51 15 85 33 34
17 93 48 130 68 95 49 127 72 234 169 157 142 271 286 323 410 15 36 35 76 44
90 18 27 39 86 80 225 l26 90 3 3690 c3 3337 2 3698 -13 3770 -58 292 -181
522 -394 736 -115 116 -156 150 -263 222 -132 89 -285 152 -470 196 -34 8
-1147 11 -4115 10 -3918 0 -4070 -1 -4152 -19z m7949 -658 c215 -40 425 -161
563 -326 69 -82 148 -232 180 -341 l23 -80 2 -1820 3 -1820 -108 110 c-199
204 -656 678 -978 1015 -175 184 -358 375 -405 424 l-86 89 -155 -159 c-85
-87 -191 -196 -234 -241 -44 -46 -84 -83 -90 -83 -10 0 -241 236 -594 605 -68
72 -230 240 -360 375 -328 339 -1427 1483 -1529 1591 -46 49 -89 89 -96 89 -7
0 -181 -172 -386 -382 -483 -495 -672 -688 -1319 -1348 -295 -300 -605 -617
-690 -705 -85 -88 -165 -168 -177 -177 -21 -18 -23 -16 -218 192 l-197 210
-87 -93 c-47 -50 -153 -162 -236 -247 -82 -85 -332 -346 -555 -580 -223 -234
-462 -483 -532 -555 l-127 -130 -3 1645 c-2 1979 -3 1930 24 2039 44 184 123
325 246 443 177 169 380 253 647 268 72 4 1768 6 3770 5 2744 -1 3656 -5 3704
-13z m-3793 -1396 c44 -46 201 -212 350 -367 379 -397 614 -654 600 -657 -6
-1 -74 9 -151 22 l-140 24 -95 -98 -95 -99 -130 187 c-71 103 -153 214 -181
247 -27 33 -82 100 -122 148 l-72 88 -2 -927 -3 -928 -217 214 c-120 118 -218
221 -218 229 0 8 21 97 46 198 l47 182 -51 58 c-28 32 -98 105 -155 161 l-104
104 -618 -621 c-340 -342 -622 -621 -626 -621 -4 0 -80 77 -170 171 l-162 171
639 639 c720 719 1322 1329 1451 1467 47 50 89 92 93 92 4 0 43 -38 86 -84z
m-3116 -2211 c67 -156 223 -468 285 -570 72 -119 179 -268 268 -374 l79 -94
-25 -13 c-44 -24 -190 -61 -284 -74 -108 -15 -108 -9 -11 -126 135 -164 351
-306 613 -402 43 -16 81 -34 83 -41 5 -14 -158 -91 -266 -125 -91 -28 -206
-51 -309 -62 -40 -3 -73 -9 -73 -11 0 -15 77 -107 142 -169 117 -113 249 -191
468 -273 64 -24 106 -45 108 -54 2 -11 -22 -28 -80 -56 -201 -97 -438 -149
-731 -159 -100 -4 -181 -9 -181 -12 1 -3 5 -50 8 -105 4 -55 16 -210 27 -345
10 -135 23 -291 27 -347 l8 -103 -218 0 c-201 0 -218 1 -218 18 0 9 4 64 10
122 5 58 19 238 30 400 11 162 23 312 26 333 l6 37 -151 0 c-232 0 -461 35
-652 101 -98 33 -229 96 -229 109 0 8 22 17 165 65 129 43 296 128 376 193
109 87 251 242 222 242 -33 0 -195 24 -272 41 -148 31 -300 89 -372 140 l-31
22 88 29 c200 65 408 185 542 312 77 74 172 186 172 205 0 6 -17 11 -39 11
-76 0 -314 63 -356 94 -13 9 -1 28 81 126 199 237 343 483 549 943 27 59 52
104 56 100 4 -5 31 -62 59 -128z m6453 -167 c142 -287 252 -478 364 -628 59
-79 173 -213 186 -218 43 -20 -152 -91 -308 -113 -47 -7 -85 -15 -85 -18 0
-29 119 -165 209 -241 132 -110 348 -231 526 -295 28 -10 54 -22 59 -26 14
-12 -165 -94 -266 -123 -98 -28 -271 -56 -347 -56 -28 0 -51 -3 -51 -6 0 -34
165 -202 270 -276 112 -78 339 -186 429 -204 47 -10 46 -20 -6 -49 -209 -118
-512 -184 -847 -185 l-118 0 6 -87 c30 -413 47 -652 53 -730 l6 -93 -213 0
-213 0 7 73 c7 81 41 566 52 730 l6 107 -138 0 c-242 0 -494 39 -650 99 -102
40 -219 103 -213 115 2 6 63 29 134 53 164 55 270 108 379 190 81 61 180 161
219 223 l17 27 -102 7 c-57 4 -159 12 -228 19 -527 51 -1793 -67 -2345 -219
-227 -63 -334 -113 -404 -189 -34 -37 -41 -52 -41 -85 0 -55 19 -88 83 -146
69 -63 139 -101 432 -236 565 -259 882 -445 1170 -686 455 -381 743 -875 772
-1326 l6 -88 -2189 6 c-1204 3 -2234 5 -2289 6 l-100 0 40 33 c22 17 83 66
137 108 223 174 569 499 739 695 292 335 409 627 355 880 -23 104 -98 255
-187 374 -175 234 -190 357 -60 494 221 232 712 384 1536 475 562 63 1458 115
1875 110 143 -1 147 -1 254 35 273 93 489 239 624 421 47 64 45 72 -18 74 -72
3 -350 81 -350 99 0 4 46 61 101 127 178 213 293 407 452 760 51 116 100 225
107 243 7 17 14 32 16 32 2 0 68 -132 147 -292z"/>
<path d="M1820 8435 c-288 -65 -477 -352 -417 -632 25 -116 68 -196 151 -279
125 -124 273 -176 449 -155 241 28 423 200 474 448 15 70 16 93 5 165 -29 202
-187 386 -382 442 -80 24 -203 28 -280 11z"/>
</g>
</svg>
